<svg id="Layer_1" data-name="Layer 1" xmlns="http://www.w3.org/2000/svg" viewBox="0 0 65.19 66.67"><defs><style>.cls-1{fill:#fce0cd;}.cls-1,.cls-2,.cls-3{stroke:#000;stroke-miterlimit:10;stroke-width:0px;}.cls-2{fill:#211916;}.cls-3{fill:#f5e06c;}</style></defs><g id="SVGRepo_iconCarrier" data-name="SVGRepo iconCarrier"><path class="cls-1" d="M20.34,70.38A13.35,13.35,0,0,0,20.85,67a4.87,4.87,0,0,0-.91-3.19,13.29,13.29,0,0,1-2.17-2.39c-2.12-3-2.61-6.93-3.24-10.54C14,49.15,13,43.09,11.32,39.21a20.29,20.29,0,0,1-2.1-7.08,2.76,2.76,0,0,1,1-2.63,3.7,3.7,0,0,1,2.25-.27,6.7,6.7,0,0,1,1.71,1.06,11.26,11.26,0,0,1,3.72,6.48,42,42,0,0,0,2.77,5.73A7.09,7.09,0,0,0,23.32,40c.27-1.08,1.86-5.08,2-6.23.77-3.68,1-5.37,1.49-8.87.35-2.67.91-6.53,1.31-8.66a27.59,27.59,0,0,1,1.24-6.43,2.29,2.29,0,0,1,1.87-1.37A2.9,2.9,0,0,1,34,10.21c.69,1.18.6,4.06.11,6.86-.12,3-.66,6.27-.9,8.21-.28,2.89-.52,5.86-.68,9.12,0,1,2.69,1.15,3.09.57.57-1.81,2.29-7.46,3-9.65C39,23.25,41,16.14,41.5,14.52a24,24,0,0,1,2.17-6.1,3,3,0,0,1,3.45-1.16,3.06,3.06,0,0,1,1.37,2c.42,2-.91,6.1-1.14,7,0,.09-1.61,7.18-2.43,10.06-.79,3.58-1.53,7.15-2.31,10.8a2.26,2.26,0,0,0,2.74,1.06c1.2-1.11,3.51-5.34,4.26-6.92,1.06-2.45,2.82-5.87,3.6-7.67l3.07-6c.47-.93,1.07-2,2.19-2a1.93,1.93,0,0,1,1.42.66,4,4,0,0,1,.75,3,17.78,17.78,0,0,1-1.8,6.12c-.6,1.54-2.9,6.88-3.75,8.4C54.66,35.13,52.37,40,52,40.86a1.79,1.79,0,0,0,.6,2.12c.47.25,1,.49,1.35.09q2.7-2.18,5.61-4.08c1-.88,2.25-2,3.31-2.74,1.27-1.27,3-2.56,4.52-2.62a2.37,2.37,0,0,1,.91.11,1.47,1.47,0,0,1,.74,1,2.93,2.93,0,0,1-.37,2.17,8.44,8.44,0,0,1-1.43,1.73c-.6.62-1.43,1.62-2,2.24l-4.34,4.32a43.91,43.91,0,0,1-4.93,4.71c-.41.34-.83.67-1.26,1-.71.57-1.5,2.25-2.63,4.3a70.13,70.13,0,0,1-6.53,12,43.35,43.35,0,0,1-3.82,3.46,7.61,7.61,0,0,0-.19,2.33" transform="translate(-6.67 -6.66)"/><path class="cls-2" d="M23.7,46.27c-.63-1-1.43-2-2.08-3-.54-.85-1-1.74-1.49-2.63s-.88-1.75-1.29-2.64c-.16-.36-.26-.58-.39-.92s-.22-.71-.33-1.07A14.59,14.59,0,0,0,16.93,33,10.25,10.25,0,0,0,15,30.46a9.55,9.55,0,0,0-1.36-1.09,3.7,3.7,0,0,0-1.35-.62,4.55,4.55,0,0,0-1.56.09,2.21,2.21,0,0,0-1.22.67,3.9,3.9,0,0,0-.67,3.2,20.25,20.25,0,0,0,.93,3.93c.42,1.2,1,2.32,1.46,3.5.39,1,.71,2,1,3.09.56,2,1,4,1.44,6,.08.36.16.71.25,1.07s.16.57.21.86c.22,1.23.41,2.46.66,3.68a18.23,18.23,0,0,0,2.65,6.88,13.13,13.13,0,0,0,1.31,1.57A6.15,6.15,0,0,1,20,64.63a4.33,4.33,0,0,1,.42,1.65,9.77,9.77,0,0,1,0,2c-.11.68-.25,1.36-.42,2a.44.44,0,0,0,.84.23,13.3,13.3,0,0,0,.5-4.06,5.83,5.83,0,0,0-.33-1.75,4,4,0,0,0-.39-.8,4.25,4.25,0,0,0-.65-.69,12.27,12.27,0,0,1-2.34-2.94,15.5,15.5,0,0,1-1.35-3.33,36.53,36.53,0,0,1-.81-3.59c-.18-1-.3-2-.55-3-.43-1.68-.76-3.38-1.16-5a38.64,38.64,0,0,0-1.94-6.22c-.25-.59-.54-1.17-.78-1.77s-.46-1.23-.64-1.86a17.53,17.53,0,0,1-.46-1.9,10.17,10.17,0,0,1-.22-1.82A2.73,2.73,0,0,1,10,30.38a1.36,1.36,0,0,1,.9-.67,3.82,3.82,0,0,1,1.26-.1,3.18,3.18,0,0,1,1.27.64,9.69,9.69,0,0,1,3.55,4.89c.28.8.45,1.63.77,2.41s.69,1.58,1.07,2.36a32.33,32.33,0,0,0,3.06,5.21,17.4,17.4,0,0,1,1.11,1.59c.29.48,1,0,.76-.44Z" transform="translate(-6.67 -6.66)"/><path class="cls-2" d="M21,42.83a6.83,6.83,0,0,0,2.68-2.57,4.88,4.88,0,0,0,.31-.91c.13-.39.27-.79.41-1.18.32-.91.65-1.81.95-2.72A23.3,23.3,0,0,0,25.94,33c1-4.82,1.48-9.7,2.26-14.55.16-1,.34-2,.44-3s.3-2.15.52-3.21c.1-.46.2-.92.33-1.38a4.91,4.91,0,0,1,.15-.51l.06-.19a.51.51,0,0,1,0-.1,2.11,2.11,0,0,1,1.09-1.09,2,2,0,0,1,1.5.1,3.18,3.18,0,0,1,1.57,2.13A12,12,0,0,1,34,14.86c-.07.74-.23,1.47-.3,2.21s-.08,1.41-.14,2.12c-.13,1.34-.3,2.68-.48,4-.36,2.62-.58,5.25-.76,7.89,0,.76-.1,1.51-.14,2.27,0,.49-.19,1.12.11,1.56a2.64,2.64,0,0,0,2.13.8,2.81,2.81,0,0,0,1.07-.15.94.94,0,0,0,.65-.71c.24-.76.48-1.53.71-2.29.59-1.94,1.19-3.88,1.78-5.83.42-1.39.74-2.8,1.11-4.2.48-1.84,1-3.68,1.51-5.51s1-3.47,1.47-5.19a17.39,17.39,0,0,1,.69-1.95,5.48,5.48,0,0,1,1-1.65,2.74,2.74,0,0,1,2.25-.69l.2.05.11,0h0a1.86,1.86,0,0,1,.59.53,3,3,0,0,1,.58,1.35,8.83,8.83,0,0,1-.23,2.8c-.25,1.33-.69,2.62-1,3.94-.71,3.15-1.41,6.3-2.25,9.4-.35,1.28-.6,2.58-.87,3.88-.33,1.5-.65,3-1,4.51-.17.76-.33,1.52-.49,2.28a2.06,2.06,0,0,0-.11.95,1.47,1.47,0,0,0,.35.57,2.84,2.84,0,0,0,2.77.77,2,2,0,0,0,.84-.73c.27-.34.52-.7.77-1.06.57-.85,1.09-1.73,1.59-2.62,1-1.73,1.77-3.53,2.63-5.32,1-2.18,2-4.37,3.14-6.52l2.12-4.18c.43-.84,1-2.3,2.16-2.21,1.34.09,1.66,1.74,1.64,2.8a12.89,12.89,0,0,1-.69,3.64c-.33,1.06-.81,2-1.22,3.05-.28.71-.58,1.41-.89,2.12-.73,1.72-1.48,3.44-2.3,5.12-.14.27-.31.55-.43.83s-.2.57-.31.84c-.31.8-.66,1.59-1,2.37s-.75,1.66-1.13,2.49A11.45,11.45,0,0,0,51.47,41a2.2,2.2,0,0,0,1.61,2.66h0c.74.19,1.17-.3,1.7-.71S56,42,56.59,41.57s1.2-.87,1.82-1.3a17,17,0,0,0,1.71-1.21c.5-.45,1-.89,1.53-1.31s1.06-.79,1.55-1.23a10,10,0,0,1,3.22-2.25A2.87,2.87,0,0,1,68,34.1c.59.15.72.92.67,1.43-.14,1.35-1.31,2.28-2.16,3.21s-1.82,2-2.78,2.94-2.27,2.15-3.3,3.3a43.32,43.32,0,0,1-3.1,3.11c-.54.49-1.09,1-1.66,1.43a19.19,19.19,0,0,0-1.49,1.21,11.84,11.84,0,0,0-1.68,2.66,17.48,17.48,0,0,0-.92,1.77c-.11.29-.23.59-.36.87-.35.79-.73,1.57-1.11,2.34-.9,1.78-1.84,3.52-2.85,5.24-.42.71-.84,1.42-1.29,2.12a9.47,9.47,0,0,1-1.09,1.43,30.23,30.23,0,0,1-2.6,2.33l-.61.52a1.1,1.1,0,0,0-.46.69A8.21,8.21,0,0,0,41,72.91c0,.56.91.57.87,0a8.22,8.22,0,0,1,0-1.11c0-.17,0-.34,0-.5s0-.2.06-.31.06-.25,0-.16a1.81,1.81,0,0,1,.33-.29l.29-.24.73-.61a18.24,18.24,0,0,0,2.47-2.34,28.65,28.65,0,0,0,2.4-3.74c1-1.73,1.94-3.5,2.83-5.29.37-.76.74-1.53,1.07-2.31a9.31,9.31,0,0,1,.49-1.07c.32-.61.64-1.22,1-1.82a12.94,12.94,0,0,1,.83-1.38,4.42,4.42,0,0,1,1-.94c1.17-.93,2.3-1.89,3.37-2.92S60.91,45.7,62,44.64l3.32-3.31c.89-.88,1.68-1.84,2.55-2.74A4.69,4.69,0,0,0,69.52,35a2.11,2.11,0,0,0-.9-1.6A2.47,2.47,0,0,0,67,33.22,7.15,7.15,0,0,0,63.62,35c-.52.41-1,.88-1.49,1.28s-1.07.84-1.58,1.28A16.73,16.73,0,0,1,59,38.81c-.61.4-1.22.81-1.82,1.24s-1.21.88-1.81,1.33l-.89.68a7.86,7.86,0,0,1-.91.73c-.22.13-.49,0-.7-.14a1,1,0,0,1-.45-.49,1.4,1.4,0,0,1,0-1.26c.67-1.49,1.36-3,2-4.46.33-.74.65-1.48.93-2.24a4.28,4.28,0,0,1,.31-.69c.16-.33.33-.67.48-1,.83-1.75,1.6-3.52,2.36-5.31a39.21,39.21,0,0,0,2.15-5.64,10.23,10.23,0,0,0,.36-3.69,3,3,0,0,0-2.16-2.72,2.64,2.64,0,0,0-2.69,1.59c-.74,1.26-1.35,2.62-2,3.92C53,22.92,52,25.21,50.86,27.5,50,29.35,49.17,31.23,48.18,33c-.5.91-1,1.82-1.58,2.7a9.3,9.3,0,0,1-1.45,2c-.24.21-.8.12-1.16,0a1.6,1.6,0,0,1-.93-.65s0-.09,0,0a1.22,1.22,0,0,1,.06-.26l.12-.57.25-1.2L44,32.78c.55-2.56,1.07-5.14,1.73-7.67.48-1.85.91-3.72,1.35-5.58.24-1.06.47-2.13.73-3.19a45.23,45.23,0,0,0,1.15-5,5.57,5.57,0,0,0-.17-2.75,2.83,2.83,0,0,0-2-1.89,3.72,3.72,0,0,0-2.63.62,6.78,6.78,0,0,0-1.94,3.32c-.44,1.25-.74,2.55-1.11,3.82l-.51,1.75C40,18,39.53,19.85,39,21.68c-.38,1.43-.68,2.89-1.11,4.31q-.88,2.88-1.76,5.76l-.78,2.53a3.38,3.38,0,0,0-.13.42s0,.07,0,.09v0c.1-.13.12-.17.06-.1s-.07,0,0,0a2.72,2.72,0,0,1-1,.11,2.69,2.69,0,0,1-1-.22,1.14,1.14,0,0,1-.25-.18s0-.06,0,0a3.44,3.44,0,0,1,0-.56c.08-1.52.18-3,.3-4.55s.2-2.79.36-4.17c.15-1.18.33-2.36.48-3.54.17-1.4.32-2.8.39-4.2,0-.74.2-1.47.28-2.2A20.74,20.74,0,0,0,35,13.14,6.67,6.67,0,0,0,34.41,10a3.6,3.6,0,0,0-2.29-2,2.6,2.6,0,0,0-3,1.26,6.61,6.61,0,0,0-.72,2.17,33.3,33.3,0,0,0-.58,3.29c-.07.47-.09,1-.15,1.43s-.18,1-.26,1.49c-.4,2.42-.74,4.86-1.06,7.3s-.7,4.85-1.18,7.25a25.16,25.16,0,0,1-.63,2.7c-.29.91-.62,1.8-.93,2.7l-.42,1.18c-.1.3-.17.63-.29.92A4.58,4.58,0,0,1,22,40.93a5.48,5.48,0,0,1-1.48,1.14c-.51.25-.07,1,.44.76Z" transform="translate(-6.67 -6.66)"/><path class="cls-2" d="M25.21,50.53a38.7,38.7,0,0,0,3.2,3.68A9,9,0,0,1,29.7,56a7.41,7.41,0,0,1,.59,1.89,10.78,10.78,0,0,1,.22,3,.44.44,0,0,0,.88,0,11.25,11.25,0,0,0-.79-5.07A7.82,7.82,0,0,0,29.41,54c-.55-.67-1.15-1.3-1.74-1.93a16.38,16.38,0,0,1-1.7-2c-.31-.46-1.07,0-.76.44Z" transform="translate(-6.67 -6.66)"/><path class="cls-2" d="M28.35,44.93l3.55.5a9.22,9.22,0,0,1,1.17.2c.92.24,1.83.52,2.73.8,2.45.74,4.88,1.53,7.31,2.35l1.48.51.5.19.18.07c.11.05,0,0,0,0a.11.11,0,0,1,.07,0,.46.46,0,0,0,.6-.16.44.44,0,0,0-.16-.6c-.65-.3-1.35-.51-2-.75Q42,47.49,40.3,46.93c-2.23-.73-4.47-1.46-6.74-2.07a7.51,7.51,0,0,0-.94-.21l-4-.56a.44.44,0,0,0-.23.84Z" transform="translate(-6.67 -6.66)"/><ellipse class="cls-3" cx="6.33" cy="13.12" rx="5.91" ry="5.69"/><path class="cls-2" d="M18.91,19.34a5.47,5.47,0,0,1-5.15-3.51,4.92,4.92,0,0,1-.32-1.74.44.44,0,0,0-.88,0A5.49,5.49,0,0,1,9,19a5.22,5.22,0,0,1-1.91.36.44.44,0,0,0,0,.88,5.6,5.6,0,0,1,5.12,3.45,4.81,4.81,0,0,1,.35,1.8.44.44,0,0,0,.88,0,5.28,5.28,0,0,1,3.46-4.91,6.24,6.24,0,0,1,2-.34.44.44,0,0,0,0-.88,6.57,6.57,0,0,0-3.74,1.14,6.22,6.22,0,0,0-2.24,2.92,6.06,6.06,0,0,0-.37,2.07h.88a6.31,6.31,0,0,0-4.19-5.74,6.12,6.12,0,0,0-2.16-.39v.88A6.58,6.58,0,0,0,13,16.11a5.59,5.59,0,0,0,.4-2h-.88a6.27,6.27,0,0,0,4.1,5.73,6.39,6.39,0,0,0,2.25.4A.44.44,0,0,0,18.91,19.34Z" transform="translate(-6.67 -6.66)"/><ellipse class="cls-3" cx="58.85" cy="51.9" rx="5.91" ry="5.69"/><path class="cls-2" d="M71.43,58.12a5.49,5.49,0,0,1-5.15-3.51A5,5,0,0,1,66,52.87a.44.44,0,0,0-.88,0,5.51,5.51,0,0,1-3.56,4.89,5.44,5.44,0,0,1-1.91.36.44.44,0,0,0,0,.88,5.58,5.58,0,0,1,5.12,3.44,4.9,4.9,0,0,1,.35,1.81.44.44,0,0,0,.88,0,5.28,5.28,0,0,1,3.46-4.91,6,6,0,0,1,2-.34.44.44,0,0,0,0-.88,6.57,6.57,0,0,0-3.74,1.14,6.1,6.1,0,0,0-2.61,5H66a6.31,6.31,0,0,0-4.19-5.74,6.12,6.12,0,0,0-2.16-.39V59a6.6,6.6,0,0,0,6-4.11,5.39,5.39,0,0,0,.4-2h-.88a6.27,6.27,0,0,0,4.1,5.73,6.63,6.63,0,0,0,2.25.4A.44.44,0,0,0,71.43,58.12Z" transform="translate(-6.67 -6.66)"/><ellipse class="cls-3" cx="49.22" cy="54.27" rx="3.07" ry="2.96"/><path class="cls-2" d="M59,60.49A2.6,2.6,0,0,1,56.33,58a.44.44,0,0,0-.88,0,2.68,2.68,0,0,1-2.64,2.52.44.44,0,0,0,0,.88,2.64,2.64,0,0,1,2.64,2.52.44.44,0,0,0,.88,0A2.57,2.57,0,0,1,59,61.37a.44.44,0,0,0,0-.88,3.59,3.59,0,0,0-2.52,1,3.42,3.42,0,0,0-1,2.38h.88a3.56,3.56,0,0,0-3.52-3.4v.88A3.58,3.58,0,0,0,56.33,58h-.88A3.51,3.51,0,0,0,59,61.37.44.44,0,0,0,59,60.49Z" transform="translate(-6.67 -6.66)"/></g></svg>